<svg xmlns="http://www.w3.org/2000/svg" xmlns:xlink="http://www.w3.org/1999/xlink" id="visual" width="960" height="540" version="1.1" viewBox="0 0 960 540"><path fill="#dfe9f3" d="M0 71L87 71L87 33L175 33L175 60L262 60L262 82L349 82L349 60L436 60L436 87L524 87L524 93L611 93L611 55L698 55L698 93L785 93L785 44L873 44L873 55L960 55L960 55L960 0L960 0L873 0L873 0L785 0L785 0L698 0L698 0L611 0L611 0L524 0L524 0L436 0L436 0L349 0L349 0L262 0L262 0L175 0L175 0L87 0L87 0L0 0Z"/><path fill="#e7eef6" d="M0 174L87 174L87 249L175 249L175 190L262 190L262 244L349 244L349 276L436 276L436 260L524 260L524 298L611 298L611 195L698 195L698 314L785 314L785 179L873 179L873 168L960 168L960 152L960 53L960 53L873 53L873 42L785 42L785 91L698 91L698 53L611 53L611 91L524 91L524 85L436 85L436 58L349 58L349 80L262 80L262 58L175 58L175 31L87 31L87 69L0 69Z"/><path fill="#eff4f9" d="M0 222L87 222L87 374L175 374L175 255L262 255L262 341L349 341L349 374L436 374L436 352L524 352L524 422L611 422L611 276L698 276L698 368L785 368L785 320L873 320L873 309L960 309L960 282L960 150L960 166L873 166L873 177L785 177L785 312L698 312L698 193L611 193L611 296L524 296L524 258L436 258L436 274L349 274L349 242L262 242L262 188L175 188L175 247L87 247L87 172L0 172Z"/><path fill="#f7f9fc" d="M0 325L87 325L87 417L175 417L175 320L262 320L262 433L349 433L349 438L436 438L436 444L524 444L524 460L611 460L611 384L698 384L698 438L785 438L785 422L873 422L873 363L960 363L960 374L960 280L960 307L873 307L873 318L785 318L785 366L698 366L698 274L611 274L611 420L524 420L524 350L436 350L436 372L349 372L349 339L262 339L262 253L175 253L175 372L87 372L87 220L0 220Z"/><path fill="#fff" d="M0 541L87 541L87 541L175 541L175 541L262 541L262 541L349 541L349 541L436 541L436 541L524 541L524 541L611 541L611 541L698 541L698 541L785 541L785 541L873 541L873 541L960 541L960 541L960 372L960 361L873 361L873 420L785 420L785 436L698 436L698 382L611 382L611 458L524 458L524 442L436 442L436 436L349 436L349 431L262 431L262 318L175 318L175 415L87 415L87 323L0 323Z"/></svg>